<?xml version="1.0" encoding="UTF-8" standalone="no"?>
<!-- Created with Inkscape (http://www.inkscape.org/) -->

<svg
   xmlns:dc="http://purl.org/dc/elements/1.1/"
   xmlns:cc="http://creativecommons.org/ns#"
   xmlns:rdf="http://www.w3.org/1999/02/22-rdf-syntax-ns#"
   xmlns:svg="http://www.w3.org/2000/svg"
   xmlns="http://www.w3.org/2000/svg"
   version="1.1"
   width="48"
   height="48"
   id="svg2985">
  <defs
     id="defs2987">
    <marker
       refX="0"
       refY="0"
       orient="auto"
       id="TriangleOutM"
       style="overflow:visible">
      <path
         d="m 5.77,0 -8.65,5 0,-10 8.65,5 z"
         transform="scale(0.4,0.4)"
         id="path3914"
         style="fill-rule:evenodd;stroke:#000000;stroke-width:1pt;marker-start:none" />
    </marker>
    <marker
       refX="0"
       refY="0"
       orient="auto"
       id="TriangleOutL"
       style="overflow:visible">
      <path
         d="m 5.77,0 -8.65,5 0,-10 8.65,5 z"
         transform="scale(0.8,0.8)"
         id="path3911"
         style="fill-rule:evenodd;stroke:#000000;stroke-width:1pt;marker-start:none" />
    </marker>
    <marker
       refX="0"
       refY="0"
       orient="auto"
       id="Arrow1Lend"
       style="overflow:visible">
      <path
         d="M 0,0 5,-5 -12.5,0 5,5 0,0 z"
         transform="matrix(-0.8,0,0,-0.8,-10,0)"
         id="path3771"
         style="fill-rule:evenodd;stroke:#000000;stroke-width:1pt;marker-start:none" />
    </marker>
    <marker
       refX="0"
       refY="0"
       orient="auto"
       id="Arrow2Lend"
       style="overflow:visible">
      <path
         d="M 8.7185878,4.0337352 -2.2072895,0.01601326 8.7185884,-4.0017078 c -1.7454984,2.3720609 -1.7354408,5.6174519 -6e-7,8.035443 z"
         transform="matrix(-1.1,0,0,-1.1,-1.1,0)"
         id="path3789"
         style="font-size:12px;fill-rule:evenodd;stroke-width:0.625;stroke-linejoin:round" />
    </marker>
    <marker
       refX="0"
       refY="0"
       orient="auto"
       id="Arrow2Mend"
       style="overflow:visible">
      <path
         d="M 8.7185878,4.0337352 -2.2072895,0.01601326 8.7185884,-4.0017078 c -1.7454984,2.3720609 -1.7354408,5.6174519 -6e-7,8.035443 z"
         transform="scale(-0.6,-0.6)"
         id="path3795"
         style="font-size:12px;fill-rule:evenodd;stroke-width:0.625;stroke-linejoin:round" />
    </marker>
    <marker
       refX="0"
       refY="0"
       orient="auto"
       id="TriangleOutM-1"
       style="overflow:visible">
      <path
         d="m 5.77,0 -8.65,5 0,-10 8.65,5 z"
         transform="scale(0.4,0.4)"
         id="path3914-7"
         style="fill-rule:evenodd;stroke:#000000;stroke-width:1pt;marker-start:none" />
    </marker>
  </defs>
  <metadata
     id="metadata2990">
    <rdf:RDF>
      <cc:Work
         rdf:about="">
        <dc:format>image/svg+xml</dc:format>
        <dc:type
           rdf:resource="http://purl.org/dc/dcmitype/StillImage" />
        <dc:title></dc:title>
      </cc:Work>
    </rdf:RDF>
  </metadata>
  <g
     id="layer1">
    <path
       d="m 16.123617,3.922467 0,34.124415"
       id="path2995"
       style="fill:none;stroke:#000000;stroke-width:2.93034554;stroke-linecap:butt;stroke-linejoin:miter;stroke-miterlimit:2;stroke-opacity:1;stroke-dasharray:none;marker-end:url(#TriangleOutM)" />
    <path
       d="m 34.28572,44.077533 0,-34.1244144"
       id="path2995-4"
       style="fill:none;stroke:#000000;stroke-width:2.93034554;stroke-linecap:butt;stroke-linejoin:miter;stroke-miterlimit:2;stroke-opacity:1;stroke-dasharray:none;marker-end:url(#TriangleOutM)" />
    <path
       d="M 15.615904,45.20852 C 14.597495,43.512203 9.2260823,34.173107 9.2260823,34.098751 c 0,-0.04245 1.2535717,-0.07718 2.7857147,-0.07718 l 2.785714,0 0,-15 0,-14.9999996 1.357143,0 1.357143,0 0,14.9969796 0,14.99698 2.778043,0.03873 2.778043,0.03873 -3.422806,5.918573 c -1.882544,3.255214 -3.447147,5.942913 -3.476897,5.972663 -0.02975,0.02975 -0.278274,-0.319323 -0.552276,-0.775716 z"
       id="path6291"
       style="opacity:0.5;fill:#ffffff;fill-opacity:1;stroke-width:1.5;stroke-linecap:butt;stroke-miterlimit:2;stroke-dasharray:none" />
    <path
       d="m 32.940368,29.021571 0,-15 -2.785714,0 c -1.532143,0 -2.785715,-0.03554 -2.785715,-0.07897 0,-0.04343 1.557067,-2.774338 3.460147,-6.0686766 2.778586,-4.8098867 3.487173,-5.9410049 3.597353,-5.7424583 0.07546,0.1359865 1.636254,2.8399686 3.468425,6.008849 1.83217,3.1688809 3.331218,5.7885239 3.331218,5.8214289 0,0.03291 -1.253571,0.05983 -2.785714,0.05983 l -2.785714,0 0,15 0,15 -1.357143,0 -1.357143,0 0,-15 z"
       id="path6293"
       style="opacity:0.5;fill:#ffffff;fill-opacity:1;stroke:#ffffff;stroke-width:1.5;stroke-linecap:butt;stroke-miterlimit:2;stroke-dasharray:none" />
    <path
       d="M 15.85451,45.403091 C 15.692089,45.15397 14.287363,42.732286 12.732898,40.021571 11.178433,37.310857 9.7844466,34.890649 9.6351511,34.643331 l -0.2714463,-0.449668 2.7169032,-0.104272 2.716903,-0.104271 0,-14.981774 0,-14.9817746 1.357143,0 1.357143,0 0,14.9999996 c 0,8.25 0.01607,15.011066 0.03571,15.02459 0.01964,0.01353 1.230693,0.06174 2.691224,0.107143 l 2.655509,0.08255 -2.734477,4.714286 c -1.503963,2.592857 -3.021458,5.207398 -3.372211,5.810091 l -0.637734,1.095806 -0.295312,-0.452949 0,0 z"
       id="path6295"
       style="opacity:0.5;fill:#ffffff;fill-opacity:1;stroke:#ffffff;stroke-width:0.21428572;stroke-linecap:butt;stroke-miterlimit:2;stroke-dasharray:none" />
    <path
       d="m 32.940368,29.021571 0,-15 -2.785714,0 c -1.532143,0 -2.785715,-0.03918 -2.785715,-0.08706 0,-0.102493 6.90349,-12.0612192 6.93625,-12.0154758 0.148565,0.2074422 6.920893,11.9817958 6.920893,12.0326478 0,0.03844 -1.253571,0.06989 -2.785714,0.06989 l -2.785714,0 0,15 0,15 -1.357143,0 -1.357143,0 0,-15 z"
       id="path6297"
       style="opacity:0.5;fill:#ffffff;fill-opacity:1;stroke:#ffffff;stroke-width:0.21428572;stroke-linecap:butt;stroke-miterlimit:2;stroke-dasharray:none" />
    <path
       d="m 32.940368,29.021571 0,-15 -2.795341,0 -2.795341,0 0.09795,-0.321428 c 0.05387,-0.176786 0.186778,-0.422919 0.295341,-0.546963 0.108564,-0.124044 0.197389,-0.267555 0.197389,-0.318912 0,-0.05136 0.266441,-0.528439 0.592092,-1.06018 0.325651,-0.531741 1.714794,-2.9275166 3.086985,-5.3239451 1.372192,-2.3964286 2.536356,-4.4023919 2.587033,-4.4576961 0.05068,-0.055304 0.506874,0.6196957 1.013773,1.4999999 0.506898,0.8803043 2.090397,3.6094819 3.518886,6.064839 l 2.597252,4.4642853 -2.840867,0 -2.840868,0 0,15 0,15 -1.357143,0 -1.357143,0 0,-15 z"
       id="path6299"
       style="opacity:0.5;fill:#ffffff;fill-opacity:1;stroke:#ffffff;stroke-width:0.21428572;stroke-linecap:butt;stroke-miterlimit:2;stroke-dasharray:none" />
    <path
       d="M 32.905312,29.057286 32.868939,14.093 l -2.75,-0.0388 c -1.5125,-0.02134 -2.75,-0.06653 -2.75,-0.100421 0,-0.178712 0.45028,-1.026168 1.29231,-2.432209 1.253305,-2.0927979 3.453902,-5.905225 4.55589,-7.8928567 0.49007,-0.8839286 0.933637,-1.6061585 0.985704,-1.6049553 0.215604,0.00498 0.417074,0.2472172 0.711074,0.8549553 0.171044,0.3535714 1.681257,2.9892857 3.356028,5.8571428 l 3.045039,5.2142859 -2.830165,0.03867 -2.830165,0.03867 0,14.997043 0,14.997041 -1.356485,0 -1.356485,0 -0.03637,-14.964285 z"
       id="path6301"
       style="opacity:0.5;fill:#ffffff;fill-opacity:1;stroke:#ffffff;stroke-width:0.21428572;stroke-linecap:butt;stroke-miterlimit:2;stroke-dasharray:none" />
    <path
       d="M 32.905312,29.057286 32.868939,14.093 l -2.6824,-0.01573 c -1.47532,-0.0087 -2.713664,-0.047 -2.751875,-0.08521 -0.129824,-0.129824 0.356274,-1.090488 1.552664,-3.068493 0.989481,-1.6359227 2.451863,-4.1808891 4.766364,-8.2948507 0.478814,-0.8510776 0.656953,-0.8024027 1.231284,0.3364379 0.319029,0.6326027 2.19295,3.8695774 2.968569,5.1278478 0.145298,0.2357143 0.383351,0.6535714 0.529007,0.9285714 0.145655,0.275 0.821981,1.4465476 1.502945,2.6034386 0.680964,1.156892 1.254743,2.185463 1.275065,2.285715 0.02895,0.142827 -0.565936,0.182275 -2.748765,0.182275 l -2.785715,0 -0.03637,14.964286 -0.03637,14.964285 -1.355826,0 -1.355827,0 -0.03637,-14.964285 z"
       id="path6303"
       style="opacity:0.5;fill:#ffffff;fill-opacity:1;stroke:#ffffff;stroke-width:0.21428572;stroke-linecap:butt;stroke-miterlimit:2;stroke-dasharray:none" />
    <path
       d="M 15.475749,44.772957 C 15.109451,44.163266 13.589419,41.543 12.097901,38.950143 l -2.711853,-4.714286 1.384303,-0.09036 c 0.761366,-0.0497 1.978946,-0.09791 2.705731,-0.107143 l 1.321429,-0.01678 0,-15 0,-14.9999996 1.357143,0 1.357143,0 0,14.9999996 c 0,8.25 0.01607,15.008382 0.03571,15.018625 0.01964,0.01024 1.234443,0.05846 2.699555,0.107143 l 2.663842,0.08852 -3.280705,5.642857 c -1.804388,3.103572 -3.327449,5.723837 -3.384581,5.822815 -0.067,0.116072 -0.3403,-0.213563 -0.769873,-0.928572 z"
       id="path6305"
       style="opacity:0.5;fill:#ffffff;fill-opacity:1;stroke:#ffffff;stroke-width:0.21428572;stroke-linecap:butt;stroke-miterlimit:2;stroke-dasharray:none" />
    <path
       d="M 15.746022,45.216117 C 15.546702,44.912689 14.032599,42.318 12.381347,39.450143 l -3.0022755,-5.214286 1.3877915,-0.09036 c 0.763285,-0.0497 1.982434,-0.09791 2.709219,-0.107143 l 1.321429,-0.01678 0,-15 0,-14.9999996 1.357143,0 1.357143,0 0,14.9999996 c 0,8.25 0.04821,15.008206 0.107142,15.018236 0.05893,0.01003 1.274623,0.05825 2.701543,0.107143 l 2.594399,0.08891 -3.270353,5.633096 c -1.798694,3.098203 -3.330147,5.692891 -3.40323,5.765974 -0.08193,0.08193 -0.271822,-0.07864 -0.495276,-0.41881 z"
       id="path6307"
       style="opacity:0.5;fill:#ffffff;fill-opacity:1;stroke:#ffffff;stroke-width:0.21428572;stroke-linecap:butt;stroke-miterlimit:2;stroke-dasharray:none" />
    <path
       d="M 15.743381,45.216117 C 15.54261,44.912689 14.028139,42.318 12.37789,39.450143 l -3.0004517,-5.214286 1.3171787,-0.09115 c 0.724449,-0.05013 1.943965,-0.09835 2.710037,-0.107143 l 1.392857,-0.01599 0,-15 0,-14.9999996 1.357143,0 1.357143,0 0.02547,14.7499996 c 0.01401,8.1125 0.02497,14.8625 0.02437,15 -6e-4,0.1375 0.100435,0.257832 0.224531,0.267405 0.124096,0.0096 1.331119,0.05779 2.682273,0.107143 l 2.456644,0.08974 -3.266027,5.623669 c -1.796314,3.093017 -3.330064,5.687705 -3.408332,5.765973 -0.0945,0.0945 -0.264929,-0.04302 -0.507345,-0.409382 l 0,0 z"
       id="path6309"
       style="opacity:0.5;fill:#ffffff;fill-opacity:1;stroke:#ffffff;stroke-width:0.21428572;stroke-linecap:butt;stroke-miterlimit:2;stroke-dasharray:none" />
  </g>
</svg>
