<?xml version="1.0" encoding="UTF-8"?>
<svg xmlns="http://www.w3.org/2000/svg" version="1.1" height="80" width="80">
 <defs>
  <linearGradient id="hicg_overlay_grad" gradientUnits="userSpaceOnUse" x1="39.9995" y1="5.1816" x2="39.9995" y2="58.8019">
   <stop offset="0" style="stop-color:#FFFFFF"/>
   <stop offset="1" style="stop-color:#000000"/>
  </linearGradient>
  <filter id="hicg_drop_shadow">
    <feOffset in="SourceAlpha" dx="0" dy="4"/>
    <feGaussianBlur stdDeviation="4"/>
	<feColorMatrix type="matrix" values="1 0 0 0 0  0 1 0 0 0  0 0 1 0 0  0 0 0 0.5 0" result="shadow"/>
    <feBlend in="SourceGraphic" in2="shadow" mode="normal"/>
  </filter>
 </defs>
 <g>
  <path id="hicg_background" fill="#18ee05" d="M79,40c0,28.893-10.105,39-39,39S1,68.893,1,40C1,11.106,11.105,1,40,1S79,11.106,79,40z"/>
  <path id="hicg_highlight" fill="#fff" opacity="0.25" d="M39.999,1C11.105,1,1,11.106,1,40c0,28.893,10.105,39,38.999,39   C68.896,79,79,68.893,79,40C79,11.106,68.896,1,39.999,1z M39.999,78.025C11.57,78.025,1.976,68.43,1.976,40   c0-28.429,9.595-38.024,38.023-38.024c28.43,0,38.024,9.596,38.024,38.024C78.023,68.43,68.429,78.025,39.999,78.025z"/>
  <path id="hicg_overlay" opacity="0.4" fill="url(#hicg_overlay_grad)" d="M78.977,40c0,28.893-10.1,39-38.977,39S1.023,68.893,1.023,40c0-28.894,10.1-39,38.977-39S78.977,11.106,78.977,40z"/>
 </g>
<g xmlns:sodipodi="http://sodipodi.sourceforge.net/DTD/sodipodi-0.dtd" xmlns:inkscape="http://www.inkscape.org/namespaces/inkscape" xmlns:rdf="http://www.w3.org/1999/02/22-rdf-syntax-ns#" xmlns:cc="http://creativecommons.org/ns#" xmlns:dc="http://purl.org/dc/elements/1.1/" transform="translate(13, 29.345945945946) scale(0.14594594594595)">
  <defs xmlns="http://www.w3.org/2000/svg" id="defs3018"/>
  <sodipodi:namedview xmlns:sodipodi="http://sodipodi.sourceforge.net/DTD/sodipodi-0.dtd" xmlns:inkscape="http://www.inkscape.org/namespaces/inkscape" id="base" pagecolor="#ffffff" bordercolor="#ffffff" borderopacity="0.0" inkscape:pageopacity="0.0" inkscape:pageshadow="0" inkscape:zoom="0.98994949" inkscape:cx="197.07885" inkscape:cy="252.8678" inkscape:document-units="px" inkscape:current-layer="layer1" showgrid="false" inkscape:window-width="1009" inkscape:window-height="962" inkscape:window-x="781" inkscape:window-y="61" inkscape:window-maximized="0" fit-margin-top="0" fit-margin-left="0" fit-margin-right="0" fit-margin-bottom="0"/>
  <metadata xmlns="http://www.w3.org/2000/svg" xmlns:rdf="http://www.w3.org/1999/02/22-rdf-syntax-ns#" xmlns:cc="http://creativecommons.org/ns#" xmlns:dc="http://purl.org/dc/elements/1.1/" id="metadata3021">
    <rdf:RDF>
      <cc:Work rdf:about="">
        <dc:format>image/svg+xml</dc:format>
        <dc:type rdf:resource="http://purl.org/dc/dcmitype/StillImage"/>
        <dc:title/>
      </cc:Work>
    </rdf:RDF>
  </metadata>
  <g xmlns="http://www.w3.org/2000/svg" xmlns:inkscape="http://www.inkscape.org/namespaces/inkscape" inkscape:label="Layer 1" inkscape:groupmode="layer" id="layer1" transform="translate(-186.83894,-453.16634)">
    <path style="fill:#ffffff;fill-rule:evenodd;stroke:none" inkscape:connector-curvature="0" d="m 507.39159,574.26409 a 32.055211,32.055211 0 0 0 -48.08282,-27.76067 32.055211,32.055211 0 0 0 -16.0276,27.76067 l -131.78279,0 a 32.055211,32.055211 0 0 0 -48.08282,-27.76067 32.055211,32.055211 0 0 0 -16.0276,27.76067 l -46.30226,0 a 14.24676,14.24676 0 0 1 -14.24676,-14.24676 l 0,-39.74732 a 21.370141,21.370141 0 0 1 0.82224,-5.87081 l 14.54283,-50.89997 a 14.24676,14.24676 0 0 1 13.69861,-10.33289 l 323.54447,0 a 3.5616901,3.5616901 0 0 1 3.56169,3.56169 l 0,7.12338 a 3.5616901,3.5616901 0 0 1 -2.84166,3.48818 l 0,0 a 3.5616901,3.5616901 0 0 0 -2.63423,4.68604 l 18.47776,51.73825 a 21.370141,21.370141 0 0 1 1.24489,7.18749 l 0,36.18934 a 7.1233802,7.1233802 0 0 1 -7.12338,7.12338 l -42.74029,0 z m 31.5976,-56.98704 -42.63855,0 a 5.3425351,5.3425351 0 0 1 -5.34254,-5.34254 l 0,-39.17887 a 5.3425351,5.3425351 0 0 1 5.34254,-5.34254 l 28.64624,0 a 5.3425351,5.3425351 0 0 1 5.03139,3.54573 l 13.99231,39.17888 a 5.3425351,5.3425351 0 0 1 -5.03139,7.13934 z m -62.58402,0 -37.43849,0 a 5.3425351,5.3425351 0 0 1 -5.13681,-6.81024 l 11.19339,-39.17888 a 5.3425351,5.3425351 0 0 1 5.1371,-3.87483 l 26.24481,0 a 5.3425351,5.3425351 0 0 1 5.34254,5.34254 l 0,39.17887 a 5.3425351,5.3425351 0 0 1 -5.34254,5.34254 z m -57.81164,0 -35.90184,0 a 5.3425351,5.3425351 0 0 1 -5.13695,-6.81024 l 11.1941,-39.17888 a 5.3425351,5.3425351 0 0 1 5.13682,-3.87483 l 35.90183,0 a 5.3425351,5.3425351 0 0 1 5.1371,6.81024 l -11.19397,39.17887 a 5.3425351,5.3425351 0 0 1 -5.13709,3.87484 z m -56.27468,0 -35.90183,0 a 5.3425351,5.3425351 0 0 1 -5.13699,-6.81024 l 11.19368,-39.17888 a 5.3425351,5.3425351 0 0 1 5.13699,-3.87483 l 35.90183,0 a 5.3425351,5.3425351 0 0 1 5.13696,6.81024 l -11.19368,39.17887 a 5.3425351,5.3425351 0 0 1 -5.13696,3.87484 z m -56.27499,0 -35.90183,0 a 5.3425351,5.3425351 0 0 1 -5.13699,-6.81024 l 11.19397,-39.17888 a 5.3425351,5.3425351 0 0 1 5.13698,-3.87483 l 35.90184,0 a 5.3425351,5.3425351 0 0 1 5.13695,6.81024 l -11.19396,39.17887 a 5.3425351,5.3425351 0 0 1 -5.13696,3.87484 z m -56.27498,0 -35.90156,0 a 5.3425351,5.3425351 0 0 1 -5.13698,-6.81024 l 11.19368,-39.17888 a 5.3425351,5.3425351 0 0 1 5.13698,-3.87483 l 35.90184,0 a 5.3425351,5.3425351 0 0 1 5.13695,6.81024 l -11.19396,39.17887 a 5.3425351,5.3425351 0 0 1 -5.13695,3.87484 z m 4.74246,56.98704 a 24.931831,24.931831 0 0 1 37.39774,-21.59154 24.931831,24.931831 0 0 1 0,43.18307 24.931831,24.931831 0 0 1 -37.39774,-21.59153 m 195.89321,0 a 24.931831,24.931831 0 0 1 37.39774,-21.59154 24.931831,24.931831 0 0 1 0,43.18307 24.931831,24.931831 0 0 1 -37.39774,-21.59153 z" id="path6"/>
  </g>
</g></svg>
