<?xml version="1.0" encoding="UTF-8" standalone="no"?>
<!-- Created with Inkscape (http://www.inkscape.org/) -->

<svg
   xmlns:dc="http://purl.org/dc/elements/1.1/"
   xmlns:cc="http://creativecommons.org/ns#"
   xmlns:rdf="http://www.w3.org/1999/02/22-rdf-syntax-ns#"
   xmlns:svg="http://www.w3.org/2000/svg"
   xmlns="http://www.w3.org/2000/svg"
   xmlns:sodipodi="http://sodipodi.sourceforge.net/DTD/sodipodi-0.dtd"
   xmlns:inkscape="http://www.inkscape.org/namespaces/inkscape"
   width="370.4166"
   height="146.02951"
   id="svg3016"
   version="1.1"
   inkscape:version="0.48.2 r9819"
   sodipodi:docname="busNoBorders.svg">
  <defs
     id="defs3018" />
  <sodipodi:namedview
     id="base"
     pagecolor="#ffffff"
     bordercolor="#ffffff"
     borderopacity="0.0"
     inkscape:pageopacity="0.0"
     inkscape:pageshadow="0"
     inkscape:zoom="0.98994949"
     inkscape:cx="197.07885"
     inkscape:cy="252.8678"
     inkscape:document-units="px"
     inkscape:current-layer="layer1"
     showgrid="false"
     inkscape:window-width="1009"
     inkscape:window-height="962"
     inkscape:window-x="781"
     inkscape:window-y="61"
     inkscape:window-maximized="0"
     fit-margin-top="0"
     fit-margin-left="0"
     fit-margin-right="0"
     fit-margin-bottom="0" />
  <metadata
     id="metadata3021">
    <rdf:RDF>
      <cc:Work
         rdf:about="">
        <dc:format>image/svg+xml</dc:format>
        <dc:type
           rdf:resource="http://purl.org/dc/dcmitype/StillImage" />
        <dc:title></dc:title>
      </cc:Work>
    </rdf:RDF>
  </metadata>
  <g
     inkscape:label="Layer 1"
     inkscape:groupmode="layer"
     id="layer1"
     transform="translate(-186.83894,-453.16634)">
    <path
       style="fill:#ffffff;fill-rule:evenodd;stroke:none"
       inkscape:connector-curvature="0"
       d="m 507.39159,574.26409 a 32.055211,32.055211 0 0 0 -48.08282,-27.76067 32.055211,32.055211 0 0 0 -16.0276,27.76067 l -131.78279,0 a 32.055211,32.055211 0 0 0 -48.08282,-27.76067 32.055211,32.055211 0 0 0 -16.0276,27.76067 l -46.30226,0 a 14.24676,14.24676 0 0 1 -14.24676,-14.24676 l 0,-39.74732 a 21.370141,21.370141 0 0 1 0.82224,-5.87081 l 14.54283,-50.89997 a 14.24676,14.24676 0 0 1 13.69861,-10.33289 l 323.54447,0 a 3.5616901,3.5616901 0 0 1 3.56169,3.56169 l 0,7.12338 a 3.5616901,3.5616901 0 0 1 -2.84166,3.48818 l 0,0 a 3.5616901,3.5616901 0 0 0 -2.63423,4.68604 l 18.47776,51.73825 a 21.370141,21.370141 0 0 1 1.24489,7.18749 l 0,36.18934 a 7.1233802,7.1233802 0 0 1 -7.12338,7.12338 l -42.74029,0 z m 31.5976,-56.98704 -42.63855,0 a 5.3425351,5.3425351 0 0 1 -5.34254,-5.34254 l 0,-39.17887 a 5.3425351,5.3425351 0 0 1 5.34254,-5.34254 l 28.64624,0 a 5.3425351,5.3425351 0 0 1 5.03139,3.54573 l 13.99231,39.17888 a 5.3425351,5.3425351 0 0 1 -5.03139,7.13934 z m -62.58402,0 -37.43849,0 a 5.3425351,5.3425351 0 0 1 -5.13681,-6.81024 l 11.19339,-39.17888 a 5.3425351,5.3425351 0 0 1 5.1371,-3.87483 l 26.24481,0 a 5.3425351,5.3425351 0 0 1 5.34254,5.34254 l 0,39.17887 a 5.3425351,5.3425351 0 0 1 -5.34254,5.34254 z m -57.81164,0 -35.90184,0 a 5.3425351,5.3425351 0 0 1 -5.13695,-6.81024 l 11.1941,-39.17888 a 5.3425351,5.3425351 0 0 1 5.13682,-3.87483 l 35.90183,0 a 5.3425351,5.3425351 0 0 1 5.1371,6.81024 l -11.19397,39.17887 a 5.3425351,5.3425351 0 0 1 -5.13709,3.87484 z m -56.27468,0 -35.90183,0 a 5.3425351,5.3425351 0 0 1 -5.13699,-6.81024 l 11.19368,-39.17888 a 5.3425351,5.3425351 0 0 1 5.13699,-3.87483 l 35.90183,0 a 5.3425351,5.3425351 0 0 1 5.13696,6.81024 l -11.19368,39.17887 a 5.3425351,5.3425351 0 0 1 -5.13696,3.87484 z m -56.27499,0 -35.90183,0 a 5.3425351,5.3425351 0 0 1 -5.13699,-6.81024 l 11.19397,-39.17888 a 5.3425351,5.3425351 0 0 1 5.13698,-3.87483 l 35.90184,0 a 5.3425351,5.3425351 0 0 1 5.13695,6.81024 l -11.19396,39.17887 a 5.3425351,5.3425351 0 0 1 -5.13696,3.87484 z m -56.27498,0 -35.90156,0 a 5.3425351,5.3425351 0 0 1 -5.13698,-6.81024 l 11.19368,-39.17888 a 5.3425351,5.3425351 0 0 1 5.13698,-3.87483 l 35.90184,0 a 5.3425351,5.3425351 0 0 1 5.13695,6.81024 l -11.19396,39.17887 a 5.3425351,5.3425351 0 0 1 -5.13695,3.87484 z m 4.74246,56.98704 a 24.931831,24.931831 0 0 1 37.39774,-21.59154 24.931831,24.931831 0 0 1 0,43.18307 24.931831,24.931831 0 0 1 -37.39774,-21.59153 m 195.89321,0 a 24.931831,24.931831 0 0 1 37.39774,-21.59154 24.931831,24.931831 0 0 1 0,43.18307 24.931831,24.931831 0 0 1 -37.39774,-21.59153 z"
       id="path6" />
  </g>
</svg>
